<?xml version="1.0" standalone="no"?>
<!DOCTYPE svg PUBLIC "-//W3C//DTD SVG 20010904//EN"
 "http://www.w3.org/TR/2001/REC-SVG-20010904/DTD/svg10.dtd">
<svg version="1.0" xmlns="http://www.w3.org/2000/svg"
 width="512.000000pt" height="512.000000pt" viewBox="0 0 512.000000 512.000000"
 preserveAspectRatio="xMidYMid meet">
<metadata>
Created by potrace 1.15, written by Peter Selinger 2001-2017
</metadata>
<g transform="translate(0.000000,512.000000) scale(0.100000,-0.100000)"
fill="#000000" stroke="none">
<path d="M2325 4624 c-295 -31 -556 -104 -790 -222 -345 -173 -678 -481 -877
-812 -406 -675 -409 -1523 -9 -2208 72 -124 215 -306 331 -422 116 -116 298
-259 422 -331 683 -399 1513 -399 2196 0 124 72 306 215 422 331 407 407 630
946 630 1519 0 575 -224 1113 -633 1522 -325 325 -735 533 -1192 604 -97 15
-419 27 -500 19z m-241 -1623 c14 -16 16 -42 14 -217 l-3 -199 -185 -159
c-102 -87 -186 -162 -188 -166 -1 -4 83 -80 188 -170 l190 -163 0 -194 c0
-115 -4 -202 -10 -214 -6 -10 -21 -19 -34 -19 -34 0 -890 721 -894 753 -4 28
1 32 443 403 431 361 434 364 449 364 7 0 20 -8 30 -19z m1186 9 c28 -15 853
-709 868 -730 10 -13 11 -24 3 -38 -9 -17 -833 -716 -868 -735 -23 -14 -60 1
-67 25 -8 31 -6 369 2 389 4 9 89 87 190 173 100 86 182 160 182 164 0 5 -83
79 -184 166 -101 86 -187 164 -190 172 -3 9 -6 98 -6 198 0 148 3 186 16 204
17 24 27 27 54 12z m-523 -242 c94 -31 164 -99 188 -182 28 -97 16 -229 -44
-494 -52 -227 -91 -429 -91 -466 0 -42 13 -48 63 -29 66 24 82 13 82 -58 0
-95 -64 -188 -159 -231 -70 -31 -180 -31 -251 1 -89 40 -123 69 -157 139 -30
61 -32 72 -32 171 0 91 8 140 57 356 70 313 87 404 87 466 0 55 -4 57 -68 32
-42 -16 -44 -16 -64 5 -20 19 -20 24 -8 82 39 183 206 271 397 208z"/>
<path d="M1640 2569 c-195 -164 -355 -304 -355 -311 0 -12 702 -608 717 -608
4 0 8 54 8 119 l0 119 -157 133 c-212 180 -253 219 -253 240 0 11 78 84 204
191 l205 173 0 123 c1 67 -2 122 -6 121 -5 0 -168 -135 -363 -300z"/>
<path d="M3300 2748 l0 -124 198 -170 c148 -127 198 -175 200 -194 3 -22 -24
-49 -197 -195 l-201 -170 0 -123 c0 -68 4 -122 8 -120 22 9 720 603 716 609
-2 4 -158 137 -347 295 -188 158 -350 294 -359 302 -17 14 -18 8 -18 -110z"/>
<path d="M2555 2686 c-36 -14 -105 -77 -105 -98 0 -4 13 -8 30 -8 41 0 89 -45
100 -94 12 -53 -7 -173 -80 -500 -51 -226 -60 -284 -60 -365 0 -131 21 -174
103 -214 45 -22 73 -29 121 -29 71 0 111 16 150 62 31 38 33 50 6 50 -37 0
-77 28 -95 66 -14 29 -16 52 -11 103 7 76 47 281 103 521 31 135 38 184 38
270 0 86 -4 112 -20 145 -39 76 -189 124 -280 91z"/>
</g>
</svg>
